<svg width="32" height="32" viewBox="0 0 32 32" fill="none" xmlns="http://www.w3.org/2000/svg">
<path d="M4.04044 14.8738L1.56251 12.3958C1.23324 12.0666 1.17482 11.5536 1.42162 11.1587L4.80033 5.7528C5.02079 5.40008 5.43657 5.22065 5.84445 5.30222L8.80854 5.89504C9.1364 5.96061 9.47534 5.85799 9.71177 5.62157L10.8041 4.52919C10.9323 4.40103 11.0232 4.24045 11.0672 4.06462L11.644 1.75746C11.7553 1.3123 12.1552 1 12.6141 1H19.3469C19.8235 1 20.234 1.33646 20.3274 1.80388L20.9041 4.68708C20.9646 4.98968 21.1614 5.24739 21.4375 5.38539L22.3598 5.84656C22.5587 5.94601 22.7851 5.97632 23.0031 5.93271L26.1556 5.30222C26.5634 5.22065 26.9792 5.40008 27.1997 5.7528L30.5784 11.1587C30.8252 11.5536 30.7668 12.0666 30.4375 12.3958L27.9596 14.8738C27.772 15.0613 27.6667 15.3157 27.6667 15.5809V16.4191C27.6667 16.6843 27.772 16.9387 27.9596 17.1262L30.4375 19.6042C30.7668 19.9334 30.8252 20.4464 30.5784 20.8413L27.1997 26.2472C26.9792 26.5999 26.5634 26.7794 26.1556 26.6978L23.0031 26.0673C22.7851 26.0237 22.5587 26.054 22.3598 26.1534L21.4374 26.6146C21.1614 26.7526 20.9646 27.0103 20.9041 27.3129L20.3274 30.1961C20.234 30.6635 19.8235 31 19.3469 31H19.3333H12.6531C12.1765 31 11.766 30.6635 11.6726 30.1961L11.0959 27.3129C11.0354 27.0103 10.8386 26.7526 10.5625 26.6146L9.62419 26.1454C9.43516 26.0509 9.22104 26.0187 9.01257 26.0535L5.06186 26.7119C4.62883 26.7841 4.19936 26.5654 4.00303 26.1727L1.32233 20.8113C1.12984 20.4263 1.20529 19.9614 1.50965 19.657L4.04044 17.1262C4.22798 16.9387 4.33333 16.6843 4.33333 16.4191V15.5809C4.33333 15.3157 4.22798 15.0613 4.04044 14.8738Z" stroke="#4D4D4D" stroke-width="2"/>
<circle cx="16" cy="16" r="5.66667" fill="white" stroke="#4D4D4D" stroke-width="2"/>
</svg>
